<svg width="20" height="20" viewBox="0 0 20 20" fill="none" xmlns="http://www.w3.org/2000/svg">
<path d="M18.3649 5.48305C18.5813 4.71578 18.6896 3.92041 18.6896 3.09662C18.6896 1.99811 18.485 0.965873 18.0765 0C17.2193 0 16.4621 0.184826 15.8048 0.554031C15.1479 0.923336 14.3988 1.49622 13.5577 2.27269C12.5001 1.96971 11.378 1.81821 10.1924 1.81821C8.8942 1.81821 7.65619 1.98403 6.47838 2.31543C5.6211 1.5199 4.86389 0.935326 4.20683 0.561196C3.54977 0.187065 2.7886 4.9724e-05 1.92315 4.9724e-05C1.51451 0.965923 1.31021 1.99821 1.31021 3.09667C1.31021 3.93006 1.41831 4.73499 1.6347 5.51136C0.544829 7.01713 0 8.89201 0 11.1363C0 13.1063 0.248292 14.6733 0.745172 15.8382C1.00967 16.4535 1.35412 16.998 1.77884 17.4716C2.2034 17.945 2.68819 18.3288 3.23311 18.6224C3.7781 18.9157 4.32685 19.1597 4.8798 19.3537C5.43271 19.5477 6.04363 19.6899 6.71274 19.7795C7.3818 19.8698 7.97272 19.929 8.48551 19.9576C8.99831 19.9856 9.56713 20 10.1923 20C10.9294 20 11.5982 19.9785 12.1995 19.9362C12.8005 19.8936 13.4874 19.7893 14.2607 19.6239C15.0339 19.4581 15.7151 19.233 16.3042 18.9491C16.8931 18.6651 17.4581 18.2578 17.999 17.7276C18.5398 17.1971 18.9623 16.5675 19.267 15.8382C19.7555 14.664 20 13.0966 20 11.1364C19.9997 8.88256 19.4548 6.99818 18.3649 5.48305ZM16.9231 15.8166C16.6666 16.437 16.342 16.9243 15.9495 17.2797C15.5568 17.6349 15.068 17.9189 14.4832 18.1322C13.898 18.3452 13.3374 18.4848 12.8005 18.5509C12.2634 18.6173 11.6667 18.6503 11.0094 18.6503H8.99018C8.33316 18.6503 7.73609 18.6173 7.1993 18.5509C6.66247 18.4848 6.1016 18.3452 5.51661 18.1322C4.93183 17.9189 4.44312 17.6349 4.05039 17.2797C3.65766 16.9242 3.33317 16.437 3.07675 15.8166C2.82038 15.1961 2.69215 14.4695 2.69215 13.6363C2.69215 12.4996 2.96861 11.5336 3.52156 10.7385C4.07447 9.94296 4.8236 9.54535 5.76903 9.54535C6.11373 9.54535 6.89498 9.6447 8.11291 9.84361C8.68177 9.94774 9.31084 9.99983 9.99985 9.99983C10.6891 9.99983 11.3181 9.94789 11.8868 9.84361C13.121 9.64465 13.902 9.54535 14.2308 9.54535C15.1761 9.54535 15.9253 9.94316 16.4782 10.7385C17.0311 11.5339 17.3074 12.4996 17.3074 13.6363C17.3074 14.4696 17.1792 15.1967 16.9231 15.8166Z" fill="#45936C"/>
<path d="M7.02516 11.3919C6.78074 11.0697 6.49039 10.9087 6.15378 10.9087C5.81708 10.9087 5.52669 11.0699 5.28232 11.3919C5.03806 11.7137 4.86567 12.0736 4.76557 12.4709C4.66525 12.869 4.61523 13.2572 4.61523 13.6362C4.61523 14.0148 4.66537 14.403 4.76557 14.8011C4.86555 15.1987 5.03785 15.5584 5.28232 15.8801C5.52682 16.2023 5.81708 16.3634 6.15378 16.3634C6.49039 16.3634 6.78087 16.202 7.02516 15.8801C7.2695 15.5584 7.4418 15.1987 7.54191 14.8011C7.6421 14.403 7.69224 14.0148 7.69224 13.6362C7.69224 13.2576 7.64223 12.869 7.54191 12.4709C7.44176 12.0738 7.26962 11.714 7.02516 11.3919Z" fill="#45936C"/>
<path d="M14.7175 11.3919C14.4732 11.0697 14.1827 10.9087 13.8462 10.9087C13.5098 10.9087 13.2192 11.0699 12.9747 11.3919C12.7304 11.7137 12.5581 12.0736 12.4582 12.4709C12.3578 12.869 12.3076 13.2572 12.3076 13.6362C12.3076 14.0148 12.3578 14.403 12.4582 14.8011C12.5581 15.1987 12.7304 15.5584 12.9747 15.8801C13.2192 16.2023 13.5098 16.3634 13.8462 16.3634C14.1827 16.3634 14.4732 16.202 14.7175 15.8801C14.9617 15.5584 15.1341 15.1987 15.2344 14.8011C15.3345 14.403 15.3846 14.0148 15.3846 13.6362C15.3846 13.2576 15.3345 12.869 15.2344 12.4709C15.1341 12.0738 14.9617 11.714 14.7175 11.3919Z" fill="#45936C"/>
</svg>
