<svg width="67" height="54" viewBox="0 0 67 54" fill="none" xmlns="http://www.w3.org/2000/svg">
<path d="M56.6667 0H10C7.34784 0 4.8043 1.05357 2.92893 2.92893C1.05357 4.8043 0 7.34784 0 10V43.3333C0 45.9855 1.05357 48.529 2.92893 50.4044C4.8043 52.2798 7.34784 53.3333 10 53.3333H56.6667C59.3188 53.3333 61.8624 52.2798 63.7377 50.4044C65.6131 48.529 66.6667 45.9855 66.6667 43.3333V10C66.6667 7.34784 65.6131 4.8043 63.7377 2.92893C61.8624 1.05357 59.3188 0 56.6667 0ZM54.4333 6.66667L33.3333 22.5L12.2333 6.66667H54.4333ZM56.6667 46.6667H10C9.11594 46.6667 8.2681 46.3155 7.64298 45.6904C7.01786 45.0652 6.66667 44.2174 6.66667 43.3333V10.8333L31.3333 29.3333C31.9103 29.7661 32.6121 30 33.3333 30C34.0546 30 34.7563 29.7661 35.3333 29.3333L60 10.8333V43.3333C60 44.2174 59.6488 45.0652 59.0237 45.6904C58.3986 46.3155 57.5507 46.6667 56.6667 46.6667Z" fill="#45936C"/>
</svg>
