<svg width="60" height="60" viewBox="0 0 60 60" fill="none" xmlns="http://www.w3.org/2000/svg">
<path d="M40.5 17.9996C37.9452 17.9909 35.4137 18.4859 33.0504 19.4565C30.6871 20.4272 28.5384 21.8542 26.7272 23.6561C24.9161 25.458 23.4779 27.5994 22.4952 29.9576C21.5125 32.3159 21.0044 34.8448 21 37.3996V56.9996C21 57.7953 21.3161 58.5583 21.8787 59.1209C22.4413 59.6836 23.2043 59.9996 24 59.9996H31C31.7956 59.9996 32.5587 59.6836 33.1213 59.1209C33.6839 58.5583 34 57.7953 34 56.9996V37.3996C33.9993 36.491 34.1902 35.5924 34.5601 34.7624C34.93 33.9324 35.4707 33.1898 36.1469 32.5828C36.8231 31.9758 37.6196 31.5181 38.4845 31.2396C39.3494 30.961 40.2633 30.8679 41.1667 30.9663C42.7867 31.1703 44.2755 31.9618 45.3507 33.1907C46.4259 34.4195 47.0128 36.0002 47 37.633V56.9996C47 57.7953 47.3161 58.5583 47.8787 59.1209C48.4413 59.6836 49.2044 59.9996 50 59.9996H57C57.7957 59.9996 58.5587 59.6836 59.1213 59.1209C59.6839 58.5583 60 57.7953 60 56.9996V37.3996C59.9956 34.8448 59.4875 32.3159 58.5048 29.9576C57.5221 27.5994 56.084 25.458 54.2728 23.6561C52.4616 21.8542 50.3129 20.4272 47.9496 19.4565C45.5863 18.4859 43.0548 17.9909 40.5 17.9996Z" fill="#45936C"/>
<path d="M12 20.9995H3C1.34315 20.9995 0 22.3427 0 23.9995V56.9995C0 58.6564 1.34315 59.9995 3 59.9995H12C13.6569 59.9995 15 58.6564 15 56.9995V23.9995C15 22.3427 13.6569 20.9995 12 20.9995Z" fill="#45936C"/>
<path d="M7.5 15C11.6421 15 15 11.6421 15 7.5C15 3.35786 11.6421 0 7.5 0C3.35786 0 0 3.35786 0 7.5C0 11.6421 3.35786 15 7.5 15Z" fill="#45936C"/>
</svg>
