<svg width="67" height="67" viewBox="0 0 67 67" fill="none" xmlns="http://www.w3.org/2000/svg">
<path d="M36.6668 20.0002C39.319 20.0002 41.8625 21.0537 43.7379 22.9291C45.6133 24.8045 46.6668 27.348 46.6668 30.0002C46.6668 30.8842 47.018 31.7321 47.6431 32.3572C48.2683 32.9823 49.1161 33.3335 50.0002 33.3335C50.8842 33.3335 51.7321 32.9823 52.3572 32.3572C52.9823 31.7321 53.3335 30.8842 53.3335 30.0002C53.3335 25.5799 51.5775 21.3407 48.4519 18.215C45.3263 15.0894 41.0871 13.3335 36.6668 13.3335C35.7828 13.3335 34.9349 13.6847 34.3098 14.3098C33.6847 14.9349 33.3335 15.7828 33.3335 16.6668C33.3335 17.5509 33.6847 18.3987 34.3098 19.0239C34.9349 19.649 35.7828 20.0002 36.6668 20.0002V20.0002Z" fill="#45936C"/>
<path d="M36.6668 6.66667C42.8552 6.66667 48.7901 9.12499 53.166 13.5008C57.5418 17.8767 60.0002 23.8116 60.0002 30C60.0002 30.8841 60.3513 31.7319 60.9765 32.357C61.6016 32.9821 62.4494 33.3333 63.3335 33.3333C64.2176 33.3333 65.0654 32.9821 65.6905 32.357C66.3156 31.7319 66.6668 30.8841 66.6668 30C66.6668 22.0435 63.5061 14.4129 57.88 8.7868C52.2539 3.1607 44.6233 0 36.6668 0C35.7828 0 34.9349 0.351189 34.3098 0.976311C33.6847 1.60143 33.3335 2.44928 33.3335 3.33333C33.3335 4.21739 33.6847 5.06523 34.3098 5.69036C34.9349 6.31548 35.7828 6.66667 36.6668 6.66667V6.66667Z" fill="#45936C"/>
<path d="M65.8333 46.3667C65.65 45.8316 65.3335 45.3519 64.9136 44.9729C64.4938 44.5938 63.9843 44.3278 63.4333 44.2L43.4333 39.6333C42.8905 39.5102 42.3254 39.5251 41.7897 39.6765C41.254 39.8278 40.7648 40.111 40.3667 40.5C39.9 40.9333 39.8667 40.9667 37.7 45.1C30.5107 41.7872 24.75 36.0029 21.4667 28.8C25.7 26.6667 25.7333 26.6667 26.1667 26.1667C26.5557 25.7685 26.8388 25.2793 26.9902 24.7436C27.1416 24.2079 27.1564 23.6429 27.0333 23.1L22.4667 3.33333C22.3388 2.78232 22.0729 2.2729 21.6938 1.85304C21.3148 1.43317 20.8351 1.11667 20.3 0.933333C19.5216 0.655298 18.7177 0.454335 17.9 0.333333C17.0575 0.137984 16.1978 0.0263311 15.3333 0C11.2667 0 7.36659 1.61547 4.49103 4.49103C1.61547 7.36659 0 11.2667 0 15.3333C0.0176397 28.9424 5.43162 41.9889 15.0547 51.612C24.6777 61.235 37.7243 66.649 51.3333 66.6667C53.3469 66.6667 55.3408 66.2701 57.2011 65.4995C59.0615 64.7289 60.7518 63.5995 62.1756 62.1756C63.5995 60.7518 64.7289 59.0615 65.4995 57.2011C66.2701 55.3408 66.6667 53.3469 66.6667 51.3333C66.6677 50.4849 66.6008 49.6378 66.4667 48.8C66.3266 47.972 66.1147 47.1579 65.8333 46.3667V46.3667Z" fill="#45936C"/>
</svg>
