<svg width="79" height="78" viewBox="0 0 79 78" fill="none" xmlns="http://www.w3.org/2000/svg">
<g filter="url(#filter0_d_372_5)">
<rect x="4" width="70" height="70" fill="#111111"/>
</g>
<g filter="url(#filter1_d_372_5)">
<path d="M29.1129 21.0909H34.7365V39.8537C34.7365 41.5881 34.3467 43.0947 33.5671 44.3736C32.7963 45.6525 31.7232 46.6379 30.348 47.3299C28.9728 48.0219 27.3742 48.3679 25.5522 48.3679C23.9317 48.3679 22.4601 48.0832 21.1374 47.5138C19.8235 46.9357 18.7811 46.0598 18.0103 44.886C17.2395 43.7035 16.8584 42.2187 16.8672 40.4318H22.5302C22.5477 41.1413 22.6922 41.7501 22.9638 42.2582C23.2441 42.7575 23.6251 43.1429 24.1069 43.4144C24.5974 43.6772 25.1755 43.8086 25.8413 43.8086C26.542 43.8086 27.1333 43.6597 27.6151 43.3619C28.1056 43.0553 28.4779 42.6085 28.7319 42.0217C28.9859 41.4348 29.1129 40.7121 29.1129 39.8537V21.0909ZM39.4403 48V21.0909H50.0568C52.0978 21.0909 53.8365 21.4807 55.2731 22.2603C56.7096 23.0311 57.8046 24.1042 58.5579 25.4794C59.32 26.8459 59.701 28.4226 59.701 30.2095C59.701 31.9964 59.3156 33.5732 58.5447 34.9396C57.7739 36.3061 56.6571 37.3704 55.1942 38.1325C53.7402 38.8945 51.9795 39.2756 49.9123 39.2756H43.1456V34.7163H48.9925C50.0875 34.7163 50.9897 34.5279 51.6992 34.1513C52.4175 33.7659 52.9518 33.2359 53.3022 32.5614C53.6613 31.8782 53.8409 31.0942 53.8409 30.2095C53.8409 29.316 53.6613 28.5365 53.3022 27.8707C52.9518 27.1963 52.4175 26.6751 51.6992 26.3072C50.9809 25.9305 50.07 25.7422 48.9663 25.7422H45.1296V48H39.4403Z" fill="#45936C"/>
</g>
<defs>
<filter id="filter0_d_372_5" x="0" y="0" width="78" height="78" filterUnits="userSpaceOnUse" color-interpolation-filters="sRGB">
<feFlood flood-opacity="0" result="BackgroundImageFix"/>
<feColorMatrix in="SourceAlpha" type="matrix" values="0 0 0 0 0 0 0 0 0 0 0 0 0 0 0 0 0 0 127 0" result="hardAlpha"/>
<feOffset dy="4"/>
<feGaussianBlur stdDeviation="2"/>
<feComposite in2="hardAlpha" operator="out"/>
<feColorMatrix type="matrix" values="0 0 0 0 0 0 0 0 0 0 0 0 0 0 0 0 0 0 0.25 0"/>
<feBlend mode="normal" in2="BackgroundImageFix" result="effect1_dropShadow_372_5"/>
<feBlend mode="normal" in="SourceGraphic" in2="effect1_dropShadow_372_5" result="shape"/>
</filter>
<filter id="filter1_d_372_5" x="12.854" y="21.0908" width="50.8472" height="35.2769" filterUnits="userSpaceOnUse" color-interpolation-filters="sRGB">
<feFlood flood-opacity="0" result="BackgroundImageFix"/>
<feColorMatrix in="SourceAlpha" type="matrix" values="0 0 0 0 0 0 0 0 0 0 0 0 0 0 0 0 0 0 127 0" result="hardAlpha"/>
<feOffset dy="4"/>
<feGaussianBlur stdDeviation="2"/>
<feComposite in2="hardAlpha" operator="out"/>
<feColorMatrix type="matrix" values="0 0 0 0 0 0 0 0 0 0 0 0 0 0 0 0 0 0 0.25 0"/>
<feBlend mode="normal" in2="BackgroundImageFix" result="effect1_dropShadow_372_5"/>
<feBlend mode="normal" in="SourceGraphic" in2="effect1_dropShadow_372_5" result="shape"/>
</filter>
</defs>
</svg>
