<svg width="134" height="128" viewBox="0 0 134 128" fill="none" xmlns="http://www.w3.org/2000/svg">
<path d="M21.0119 47.6237C21.0089 46.0788 21.5469 44.5816 22.5327 43.392C23.0878 42.7225 23.7695 42.169 24.5388 41.7633C25.3081 41.3577 26.1498 41.1078 27.0159 41.0279C27.8819 40.9481 28.7552 41.0399 29.5857 41.298C30.4162 41.5562 31.1876 41.9757 31.8557 42.5324L67.2965 72.1546L102.803 43.5904C103.48 43.0411 104.258 42.631 105.093 42.3835C105.929 42.136 106.805 42.056 107.671 42.1482C108.537 42.2403 109.377 42.5028 110.142 42.9205C110.906 43.3382 111.581 43.9029 112.126 44.5822C112.728 45.2663 113.182 46.0674 113.46 46.9354C113.738 47.8033 113.833 48.7192 113.74 49.6257C113.647 50.5322 113.367 51.4096 112.919 52.2029C112.471 52.9963 111.863 53.6884 111.135 54.2358L71.4621 86.1722C70.279 87.1447 68.795 87.6763 67.2634 87.6763C65.7319 87.6763 64.2479 87.1447 63.0648 86.1722L23.3923 53.1118C22.5921 52.4484 21.9596 51.6058 21.546 50.6523C21.1324 49.6988 20.9494 48.6612 21.0119 47.6237Z" fill="#334F53"/>
</svg>
