<svg width="36" height="32" viewBox="0 0 36 32" fill="none" xmlns="http://www.w3.org/2000/svg">
<path d="M21.6294 15.8702L34.1711 4.53074C34.7203 4.03301 35.0288 3.35794 35.0288 2.65404C35.0288 1.95015 34.7203 1.27508 34.1711 0.777352C33.6219 0.279622 32.877 0 32.1002 0C31.3235 0 30.5786 0.279622 30.0294 0.777352L17.5169 12.1432L5.00441 0.777352C4.45519 0.279622 3.71029 -5.24443e-09 2.93358 0C2.15687 5.24444e-09 1.41196 0.279622 0.862745 0.777352C0.313526 1.27508 0.00497759 1.95015 0.00497758 2.65404C0.00497758 3.35794 0.313526 4.03301 0.862745 4.53074L13.4044 15.8702L0.862745 27.2096C0.58937 27.4554 0.372388 27.7477 0.224313 28.0698C0.0762372 28.3919 0 28.7374 0 29.0863C0 29.4353 0.0762372 29.7808 0.224313 30.1029C0.372388 30.425 0.58937 30.7173 0.862745 30.963C1.13389 31.2108 1.45647 31.4074 1.8119 31.5416C2.16732 31.6758 2.54854 31.7449 2.93358 31.7449C3.31861 31.7449 3.69984 31.6758 4.05526 31.5416C4.41068 31.4074 4.73327 31.2108 5.00441 30.963L17.5169 19.5971L30.0294 30.963C30.3006 31.2108 30.6231 31.4074 30.9786 31.5416C31.334 31.6758 31.7152 31.7449 32.1002 31.7449C32.4853 31.7449 32.8665 31.6758 33.2219 31.5416C33.5773 31.4074 33.8999 31.2108 34.1711 30.963C34.4444 30.7173 34.6614 30.425 34.8095 30.1029C34.9576 29.7808 35.0338 29.4353 35.0338 29.0863C35.0338 28.7374 34.9576 28.3919 34.8095 28.0698C34.6614 27.7477 34.4444 27.4554 34.1711 27.2096L21.6294 15.8702Z" fill="#45936C"/>
</svg>
